<svg preserveAspectRatio="none" width="100%" height="100%" overflow="visible" style="display: block;" viewBox="0 0 37 37" fill="none" xmlns="http://www.w3.org/2000/svg">
<g id="fingerprint">
<mask id="mask0_0_26" style="mask-type:alpha" maskUnits="userSpaceOnUse" x="0" y="0" width="37" height="37">
<rect id="Bounding box" width="37" height="37" fill="var(--fill-0, #D9D9D9)"/>
</mask>
<g mask="url(#mask0_0_26)">
<path id="fingerprint_2" d="M18.5824 6.76335C21.3307 6.76335 23.9216 7.35587 26.3551 8.5409C28.7889 9.72592 30.8055 11.4305 32.405 13.6546C32.5648 13.8851 32.6212 14.0912 32.5742 14.2728C32.5271 14.4542 32.4281 14.609 32.277 14.7372C32.1259 14.8606 31.9497 14.9165 31.7482 14.9049C31.547 14.8933 31.3768 14.779 31.2375 14.5619C29.8043 12.5328 27.9662 10.977 25.7234 9.89448C23.4805 8.81197 21.1002 8.26339 18.5824 8.24875C16.0551 8.24387 13.6844 8.78705 11.4703 9.87829C9.25619 10.9693 7.43664 12.5377 6.01163 14.5835C5.84333 14.8139 5.65987 14.9445 5.46125 14.975C5.26263 15.0056 5.08393 14.9703 4.92514 14.8691C4.74836 14.7727 4.64147 14.626 4.60447 14.4289C4.56721 14.2318 4.60113 14.0479 4.70622 13.877C6.28001 11.6128 8.28944 9.8612 10.7345 8.62222C13.1796 7.38298 15.7956 6.76335 18.5824 6.76335ZM18.5824 10.4815C22.0732 10.4815 25.057 11.6583 27.5337 14.0119C30.0104 16.3655 31.2487 19.2497 31.2487 22.6645C31.2487 23.9436 30.7957 25.0334 29.8897 25.934C28.984 26.8343 27.8799 27.2845 26.5775 27.2845C25.2575 27.2845 24.1319 26.8475 23.2004 25.9737C22.269 25.1001 21.8033 24.0309 21.8033 22.7662C21.8033 21.8736 21.4906 21.1179 20.8652 20.4992C20.2395 19.8805 19.481 19.5711 18.5897 19.5711C17.7079 19.5711 16.95 19.8805 16.3161 20.4992C15.682 21.1179 15.3649 21.8736 15.3649 22.7662C15.3649 25.3447 16.112 27.5098 17.6061 29.2617C19.1005 31.0138 21.1368 32.2047 23.715 32.8345C23.9483 32.88 24.1027 32.9849 24.1782 33.1494C24.2538 33.3141 24.272 33.4892 24.233 33.6747C24.1842 33.8687 24.0878 34.0223 23.9439 34.1357C23.8 34.249 23.591 34.2776 23.3168 34.2216C20.4293 33.5872 18.1347 32.2412 16.4329 30.1836C14.7309 28.1257 13.8799 25.6533 13.8799 22.7662C13.8799 21.4651 14.3392 20.3621 15.2578 19.4574C16.1763 18.5527 17.287 18.1004 18.5897 18.1004C19.8922 18.1004 21.0052 18.5407 21.929 19.4212C22.8524 20.3018 23.3141 21.3829 23.3141 22.6645C23.3141 23.5448 23.6351 24.2894 24.2769 24.8984C24.919 25.5076 25.6859 25.8122 26.5775 25.8122C27.4516 25.8122 28.2004 25.5076 28.8241 24.8984C29.4477 24.2894 29.7595 23.5448 29.7595 22.6645C29.7595 19.6608 28.6638 17.1376 26.4726 15.0949C24.2814 13.0522 21.6484 12.0308 18.5735 12.0308C15.4987 12.0308 12.8741 13.068 10.6998 15.1423C8.52557 17.2164 7.43844 19.7606 7.43844 22.7751C7.43844 23.6048 7.50602 24.4817 7.64117 25.406C7.77632 26.3302 8.02967 27.299 8.40121 28.3124C8.48061 28.5524 8.48215 28.7516 8.40584 28.9102C8.32952 29.0687 8.20234 29.1875 8.02427 29.2667C7.81949 29.3461 7.61971 29.3525 7.42495 29.2859C7.23044 29.2197 7.08386 29.061 6.98519 28.81C6.68251 27.9654 6.43905 27.0327 6.25482 26.0118C6.07085 24.991 5.97887 23.9091 5.97887 22.7662C5.97887 19.3787 7.21811 16.4843 9.6966 14.0832C12.1751 11.682 15.137 10.4815 18.5824 10.4815ZM18.5897 2.95312C20.2706 2.95312 21.9148 3.15406 23.5223 3.55592C25.13 3.95778 26.6734 4.54348 28.1527 5.31303C28.3831 5.42403 28.5175 5.5764 28.5558 5.77013C28.5941 5.96387 28.5735 6.14065 28.4941 6.30047C28.4004 6.46029 28.2644 6.58529 28.0864 6.67548C27.9086 6.76592 27.7098 6.75076 27.4901 6.63C26.1134 5.93137 24.6729 5.39204 23.1684 5.01202C21.664 4.632 20.1378 4.44199 18.5897 4.44199C17.0308 4.44199 15.5051 4.62159 14.0125 4.9808C12.5196 5.34001 11.0923 5.88974 9.73051 6.63C9.49901 6.75076 9.29486 6.78391 9.11809 6.72944C8.94156 6.67496 8.80204 6.56358 8.69952 6.39528C8.61653 6.26347 8.59328 6.09196 8.62976 5.88075C8.66625 5.66929 8.77352 5.51537 8.95159 5.41902C10.427 4.57778 11.9853 3.95649 13.6267 3.55515C15.268 3.1538 16.9224 2.95312 18.5897 2.95312ZM18.5897 14.3009C20.9767 14.3009 23.0266 15.1105 24.7394 16.7295C26.4525 18.3482 27.309 20.3266 27.309 22.6645C27.309 22.9096 27.2483 23.1086 27.1271 23.2615C27.0055 23.4141 26.8223 23.4904 26.5775 23.4904C26.3264 23.4904 26.1337 23.4141 25.9993 23.2615C25.8652 23.1086 25.7981 22.9096 25.7981 22.6645C25.7981 20.7217 25.0907 19.086 23.6757 17.7574C22.2609 16.4287 20.5656 15.7644 18.5897 15.7644C16.6089 15.7644 14.9203 16.4432 13.5238 17.8009C12.1275 19.1586 11.4294 20.8137 11.4294 22.7662C11.4294 24.8287 11.7656 26.6122 12.4381 28.1166C13.1105 29.621 14.1676 31.124 15.6093 32.6256C15.7776 32.7939 15.8611 32.9701 15.8598 33.1544C15.8583 33.3383 15.7989 33.4987 15.6817 33.6354C15.5476 33.7985 15.3594 33.882 15.1171 33.8859C14.8745 33.8898 14.6691 33.7991 14.5008 33.6138C13.0021 32.0742 11.8673 30.4338 11.0964 28.6928C10.3256 26.9517 9.94018 24.9762 9.94018 22.7662C9.94018 20.409 10.7814 18.4088 12.4639 16.7657C14.1464 15.1225 16.1883 14.3009 18.5897 14.3009ZM18.5727 21.9071C18.8035 21.9071 18.9831 21.9827 19.1116 22.1338C19.2403 22.2851 19.3046 22.4717 19.3046 22.6934C19.3046 24.8299 20.0286 26.5013 21.4765 27.7077C22.9244 28.914 24.6415 29.5172 26.6279 29.5172C26.8553 29.5172 27.1236 29.497 27.4327 29.4567C27.7421 29.4166 28.0473 29.3854 28.3484 29.363C28.5597 29.3481 28.7381 29.4007 28.8838 29.5207C29.0297 29.6409 29.1053 29.7894 29.1104 29.9662C29.1253 30.171 29.084 30.3357 28.9863 30.4603C28.8889 30.5849 28.7534 30.674 28.5797 30.7274C28.1753 30.8559 27.7924 30.9314 27.4312 30.954C27.0696 30.9766 26.8019 30.988 26.6279 30.988C24.2181 30.988 22.1511 30.2456 20.427 28.761C18.7031 27.2766 17.8412 25.2541 17.8412 22.6934C17.8412 22.4717 17.9056 22.2851 18.0343 22.1338C18.1628 21.9827 18.3423 21.9071 18.5727 21.9071Z" fill="var(--fill-0, #A7C9FF)"/>
</g>
</g>
</svg>
