<svg preserveAspectRatio="none" width="100%" height="100%" overflow="visible" style="display: block;" viewBox="0 0 263.149 88.8628" fill="none" xmlns="http://www.w3.org/2000/svg">
<g id="Graph">
<path id="Path 2" opacity="0.1" fill-rule="evenodd" clip-rule="evenodd" d="M2.00048 52.5835C2.00048 52.5835 12.2159 49.9736 23.8302 56.2436C45.92 68.1688 47.1802 46.3309 55.3713 35.8011C62.8653 26.1675 69.0717 32.0453 77.4157 43.8264C83.5697 52.5155 92.5385 67.1011 101.827 64.753C110.317 62.6066 116.336 45.4997 128.104 41.1492C137.431 37.7011 145.011 47.1739 155.752 43.8264C170.322 39.2853 172.492 21.8902 182.906 21.8902C195.758 21.8902 203.807 52.9303 215.5 52.9303C227.122 52.9303 233.102 22.2452 245.816 31.5603C255.536 38.6817 261.149 12.5512 261.149 12.5512V88.8628H2.00048V52.5835Z" fill="url(#paint0_linear_0_20)"/>
<path id="Path 2_2" d="M2.00048 41.4533C2.00048 41.4533 12.2159 38.8811 23.8302 45.0604C45.92 56.813 47.1802 35.2912 55.3713 24.9138C62.8653 15.4196 69.0717 21.2124 77.4157 32.823C83.5697 41.3863 92.5385 55.7607 101.827 53.4466C110.317 51.3313 116.336 34.472 128.104 30.1845C137.431 26.7863 145.011 36.122 155.752 32.823C170.322 28.3476 172.492 11.2043 182.906 11.2043C195.758 11.2043 203.807 41.7951 215.5 41.7951C227.122 41.7951 233.102 11.5541 245.816 20.7343C255.536 27.7527 261.149 2.00042 261.149 2.00042" stroke="var(--stroke-0, #FF0004)" stroke-width="4" stroke-linecap="round" stroke-linejoin="round"/>
</g>
<defs>
<linearGradient id="paint0_linear_0_20" x1="48.8353" y1="40.1342" x2="48.8353" y2="88.8628" gradientUnits="userSpaceOnUse">
<stop stop-color="#0062FF"/>
<stop offset="1" stop-color="white" stop-opacity="0.01"/>
</linearGradient>
</defs>
</svg>
