<svg preserveAspectRatio="none" width="100%" height="100%" overflow="visible" style="display: block;" viewBox="0 0 111 113.526" fill="none" xmlns="http://www.w3.org/2000/svg">
<g id="Group 611">
<path id="Ellipse 12" d="M110.975 58.483C110.644 69.6315 107.11 80.4334 100.813 89.5397C94.5155 98.646 85.7349 105.653 75.5673 109.686C65.3997 113.719 54.2957 114.599 43.6421 112.216C32.9885 109.833 23.2574 104.292 15.6641 96.2866C8.07084 88.281 2.95185 78.1647 0.946467 67.2013C-1.05892 56.2379 0.138171 44.9131 4.38824 34.6414C8.63831 24.3697 15.753 15.6061 24.8438 9.44526C33.9346 3.28438 44.5985 -0.000792441 55.504 1.43381e-07L55.5036 5.67632C45.6887 5.67561 36.0911 8.63226 27.9094 14.177C19.7277 19.7218 13.3245 27.609 9.49942 36.8536C5.67436 46.0982 4.59698 56.2904 6.40183 66.1575C8.20667 76.0246 12.8138 85.1292 19.6477 92.3343C26.4817 99.5394 35.2397 104.526 44.8279 106.67C54.4162 108.815 64.4097 108.023 73.5606 104.394C82.7114 100.764 90.614 94.4578 96.2813 86.2621C101.949 78.0664 105.13 68.3447 105.427 58.311L110.975 58.483Z" fill="var(--fill-0, #F1EFEF)"/>
<path id="Ellipse 14" d="M55.5 0C68.065 1.53311e-07 80.2581 4.36067 90.0852 12.3688C99.9122 20.3769 106.791 31.5586 109.598 44.0849C112.404 56.6111 110.972 69.7407 105.535 81.3262C100.097 92.9116 90.9774 102.267 79.6661 107.863C68.3548 113.458 55.5217 114.963 43.2659 112.13C31.01 109.297 20.0566 102.295 12.1973 92.2682C4.33801 82.2415 0.0378933 69.784 0.000276402 56.9331C-0.0373405 44.0822 4.18977 31.5986 11.9902 21.524L16.3412 25.0479C9.3208 34.1151 5.5164 45.3503 5.55025 56.9161C5.58411 68.4819 9.45421 79.6937 16.5276 88.7177C23.601 97.7417 33.459 104.044 44.4893 106.593C55.5196 109.143 67.0693 107.789 77.2495 102.753C87.4296 97.7168 95.6377 89.2968 100.531 78.8699C105.425 68.443 106.714 56.6264 104.188 45.3527C101.662 34.079 95.471 24.0156 86.6266 16.8082C77.7823 9.60092 66.8085 5.67632 55.5 5.67632L55.5 0Z" fill="var(--fill-0, #0062FF)"/>
</g>
</svg>
