<svg preserveAspectRatio="none" width="100%" height="100%" overflow="visible" style="display: block;" viewBox="0 0 116 116" fill="none" xmlns="http://www.w3.org/2000/svg">
<g id="Group 1321316161">
<path id="Ellipse 10" d="M116 58C116 90.0325 90.0325 116 58 116C25.9675 116 0 90.0325 0 58C0 25.9675 25.9675 0 58 0C90.0325 0 116 25.9675 116 58ZM5.8 58C5.8 86.8293 29.1707 110.2 58 110.2C86.8293 110.2 110.2 86.8293 110.2 58C110.2 29.1707 86.8293 5.8 58 5.8C29.1707 5.8 5.8 29.1707 5.8 58Z" fill="var(--fill-0, #F1EFEF)"/>
<path id="Ellipse 16" d="M58 0C67.0758 1.08228e-07 76.025 2.12988 84.1278 6.21835C92.2305 10.3068 99.2608 16.2397 104.653 23.54C110.045 30.8403 113.649 39.3041 115.175 48.2508C116.7 57.1975 116.105 66.3773 113.437 75.052C110.768 83.7267 106.102 91.6542 99.8116 98.1969C93.5216 104.74 85.784 109.715 77.221 112.723C68.6581 115.73 59.5088 116.686 50.509 115.514C41.5091 114.342 32.91 111.074 25.4032 105.973L28.6628 101.176C35.419 105.767 43.1582 108.708 51.2581 109.763C59.3579 110.818 67.5923 109.957 75.2989 107.25C83.0056 104.543 89.9694 100.066 95.6304 94.1772C101.291 88.2888 105.492 81.1541 107.893 73.3468C110.294 65.5396 110.83 57.2777 109.457 49.2257C108.084 41.1737 104.841 33.5562 99.9878 26.986C95.1347 20.4158 88.8075 15.0761 81.515 11.3965C74.2225 7.71689 66.1682 5.8 58 5.8L58 0Z" fill="var(--fill-0, #0062FF)"/>
</g>
</svg>
