<svg preserveAspectRatio="none" width="100%" height="100%" overflow="visible" style="display: block;" viewBox="0 0 18 18" fill="none" xmlns="http://www.w3.org/2000/svg">
<g id="chat_bubble">
<mask id="mask0_0_25" style="mask-type:alpha" maskUnits="userSpaceOnUse" x="0" y="0" width="18" height="18">
<rect id="Bounding box" width="18" height="18" fill="var(--fill-0, #D9D9D9)"/>
</mask>
<g mask="url(#mask0_0_25)">
<path id="chat_bubble_2" d="M4.50078 13.5008L2.94678 15.0548C2.73278 15.2688 2.48828 15.317 2.21328 15.1993C1.93828 15.0818 1.80078 14.8719 1.80078 14.5695V3.15078C1.80078 2.77953 1.93297 2.46172 2.19734 2.19734C2.46172 1.93297 2.77953 1.80078 3.15078 1.80078H14.8508C15.222 1.80078 15.5398 1.93297 15.8042 2.19734C16.0686 2.46172 16.2008 2.77953 16.2008 3.15078V12.1508C16.2008 12.522 16.0686 12.8398 15.8042 13.1042C15.5398 13.3686 15.222 13.5008 14.8508 13.5008H4.50078ZM3.93828 12.1508H14.8508V3.15078H3.15078V12.9383L3.93828 12.1508Z" fill="var(--fill-0, white)"/>
</g>
</g>
</svg>
