<svg preserveAspectRatio="none" width="100%" height="100%" overflow="visible" style="display: block;" viewBox="0 0 30 30" fill="none" xmlns="http://www.w3.org/2000/svg">
<g id="arrow_outward">
<mask id="mask0_0_5" style="mask-type:alpha" maskUnits="userSpaceOnUse" x="0" y="0" width="30" height="30">
<rect id="Bounding box" width="30" height="30" fill="var(--fill-0, #D9D9D9)"/>
</mask>
<g mask="url(#mask0_0_5)">
<path id="arrow_outward_2" d="M20.25 9.84375L8.375 21.7187C8.14583 21.9479 7.88542 22.0573 7.59375 22.0469C7.30208 22.0365 7.04167 21.9167 6.8125 21.6875C6.58333 21.4583 6.46875 21.1927 6.46875 20.8906C6.46875 20.5885 6.58333 20.3229 6.8125 20.0937L18.6562 8.25H8.625C8.30625 8.25 8.03906 8.14281 7.82344 7.92844C7.60781 7.71406 7.5 7.44844 7.5 7.13156C7.5 6.81469 7.60781 6.54687 7.82344 6.32812C8.03906 6.10937 8.30625 6 8.625 6H21.375C21.6938 6 21.9609 6.10781 22.1766 6.32344C22.3922 6.53906 22.5 6.80625 22.5 7.125V19.875C22.5 20.1937 22.3928 20.4609 22.1784 20.6766C21.9641 20.8922 21.6984 21 21.3816 21C21.0647 21 20.7969 20.8922 20.5781 20.6766C20.3594 20.4609 20.25 20.1937 20.25 19.875V9.84375Z" fill="var(--fill-0, #1C1B1F)"/>
</g>
</g>
</svg>
