<svg preserveAspectRatio="none" width="100%" height="100%" overflow="visible" style="display: block;" viewBox="0 0 20 20" fill="none" xmlns="http://www.w3.org/2000/svg">
<g id="arrow_outward">
<mask id="mask0_0_19" style="mask-type:alpha" maskUnits="userSpaceOnUse" x="0" y="0" width="20" height="20">
<rect id="Bounding box" width="20" height="20" fill="var(--fill-0, #D9D9D9)"/>
</mask>
<g mask="url(#mask0_0_19)">
<path id="arrow_outward_2" d="M13.6212 6.06628L5.34391 14.3357C5.22849 14.4509 5.10432 14.5038 4.97141 14.4942C4.83835 14.4846 4.71411 14.4221 4.5987 14.3067C4.48342 14.1913 4.42578 14.065 4.42578 13.9277C4.42578 13.7905 4.48342 13.6642 4.5987 13.5488L12.8472 5.29232H5.66286C5.50939 5.29232 5.38071 5.24079 5.27682 5.13773C5.17307 5.03468 5.1212 4.90704 5.1212 4.75482C5.1212 4.60246 5.17307 4.47343 5.27682 4.36773C5.38071 4.2619 5.50939 4.20898 5.66286 4.20898H14.0345C14.2244 4.20898 14.3835 4.27315 14.5118 4.40148C14.6403 4.52996 14.7045 4.68905 14.7045 4.87878V13.2507C14.7045 13.4041 14.653 13.5327 14.5499 13.6365C14.4469 13.7404 14.3193 13.7923 14.167 13.7923C14.0147 13.7923 13.8856 13.7404 13.7797 13.6365C13.674 13.5327 13.6212 13.4041 13.6212 13.2507V6.06628Z" fill="var(--fill-0, #B5B5BE)"/>
</g>
</g>
</svg>
