<svg preserveAspectRatio="none" width="100%" height="100%" overflow="visible" style="display: block;" viewBox="0 0 20 20" fill="none" xmlns="http://www.w3.org/2000/svg">
<g id="arrow_outward">
<mask id="mask0_0_14" style="mask-type:alpha" maskUnits="userSpaceOnUse" x="0" y="0" width="20" height="20">
<rect id="Bounding box" width="20" height="20" fill="var(--fill-0, #D9D9D9)"/>
</mask>
<g mask="url(#mask0_0_14)">
<path id="arrow_outward_2" d="M10.1098 4.16063L10.1042 15.8609C10.1041 16.024 10.0536 16.1492 9.95286 16.2364C9.852 16.3237 9.71996 16.3674 9.55674 16.3674C9.39361 16.3673 9.26353 16.3187 9.1665 16.2217C9.06947 16.1246 9.02091 15.9946 9.02081 15.8314L9.01521 4.16063L3.93509 9.24075C3.82657 9.34927 3.69914 9.40383 3.55281 9.40442C3.40658 9.40491 3.27964 9.35133 3.17201 9.2437C3.06427 9.13596 3.00971 9.00804 3.00834 8.85994C3.00696 8.71165 3.06054 8.58324 3.16906 8.47472L9.08872 2.55506C9.22297 2.4208 9.38084 2.35368 9.56234 2.35368C9.74402 2.35368 9.90194 2.42075 10.0361 2.55491L15.9559 8.47472C16.0644 8.58324 16.1189 8.71062 16.1194 8.85685C16.12 9.00318 16.0665 9.13017 15.9589 9.2378C15.8511 9.34554 15.7231 9.40009 15.5748 9.40147C15.4267 9.40284 15.2984 9.34927 15.1899 9.24075L10.1098 4.16063Z" fill="var(--fill-0, #B5B5BE)"/>
</g>
</g>
</svg>
