<svg preserveAspectRatio="none" width="100%" height="100%" overflow="visible" style="display: block;" viewBox="0 0 16 16" fill="none" xmlns="http://www.w3.org/2000/svg">
<g id="brightness-sharp-regular" clip-path="url(#clip0_0_1246)">
<path id="Vector" d="M7.25 2.75V3.5H8.75V2.75V0.75V0H7.25V0.75V2.75ZM8 6.5C8.39782 6.5 8.77936 6.65804 9.06066 6.93934C9.34196 7.22064 9.5 7.60218 9.5 8C9.5 8.39782 9.34196 8.77936 9.06066 9.06066C8.77936 9.34196 8.39782 9.5 8 9.5C7.60218 9.5 7.22064 9.34196 6.93934 9.06066C6.65804 8.77936 6.5 8.39782 6.5 8C6.5 7.60218 6.65804 7.22064 6.93934 6.93934C7.22064 6.65804 7.60218 6.5 8 6.5ZM8 11C8.79565 11 9.55871 10.6839 10.1213 10.1213C10.6839 9.55871 11 8.79565 11 8C11 7.20435 10.6839 6.44129 10.1213 5.87868C9.55871 5.31607 8.79565 5 8 5C7.20435 5 6.44129 5.31607 5.87868 5.87868C5.31607 6.44129 5 7.20435 5 8C5 8.79565 5.31607 9.55871 5.87868 10.1213C6.44129 10.6839 7.20435 11 8 11ZM0 7.25V8.75H0.75H2.75H3.5V7.25H2.75H0.75H0ZM13.25 7.25H12.5V8.75H13.25H15.25H16V7.25H15.25H13.25ZM7.25 16H8.75V15.25V13.25V12.5H7.25V13.25V15.25V16ZM2.875 1.8125L1.8125 2.875L2.34375 3.40625L3.75938 4.82188L4.29063 5.35313L5.35 4.29375L4.81875 3.7625L3.40313 2.34375L2.875 1.8125ZM12.2437 11.1812L11.7125 10.65L10.6531 11.7094L11.1844 12.2406L12.5969 13.6562L13.1281 14.1875L14.1875 13.125L13.6562 12.5938L12.2406 11.1781L12.2437 11.1812ZM1.8125 13.125L2.875 14.1875L3.40625 13.6562L4.82188 12.2406L5.35313 11.7094L4.29375 10.65L3.7625 11.1812L2.34375 12.5969L1.8125 13.125ZM11.1812 3.75625L10.65 4.2875L11.7094 5.34688L12.2406 4.81563L13.6562 3.40313L14.1875 2.87188L13.125 1.8125L12.5938 2.34375L11.1781 3.75938L11.1812 3.75625Z" fill="var(--fill-0, white)"/>
</g>
<defs>
<clipPath id="clip0_0_1246">
<rect width="16" height="16" fill="white"/>
</clipPath>
</defs>
</svg>
