<svg preserveAspectRatio="none" width="100%" height="100%" overflow="visible" style="display: block;" viewBox="0 0 66.88 66" fill="none" xmlns="http://www.w3.org/2000/svg">
<g id="Group 611">
<path id="Ellipse 12" d="M66.8647 33.9999C66.6656 40.4812 64.536 46.761 60.7419 52.0551C56.9477 57.3491 51.6572 61.4228 45.531 63.7674C39.4048 66.1119 32.7144 66.6234 26.2954 65.238C19.8763 63.8526 14.0131 60.6317 9.438 55.9775C4.86286 51.3233 1.77856 45.4421 0.570268 39.0683C-0.638022 32.6946 0.0832509 26.1108 2.64401 20.1392C5.20477 14.1676 9.49153 9.07282 14.9689 5.49112C20.4463 1.90942 26.8716 -0.000460696 33.4424 8.33563e-08L33.4422 3.3C27.5285 3.29959 21.7457 5.01848 16.816 8.24201C11.8864 11.4655 8.0283 16.0508 5.72361 21.4253C3.41893 26.7997 2.76978 32.7251 3.85724 38.4615C4.9447 44.1979 7.72058 49.4909 11.8382 53.6797C15.9558 57.8685 21.2327 60.7673 27.0098 62.0142C32.787 63.2611 38.8083 62.8007 44.3219 60.6906C49.8355 58.5805 54.597 54.9142 58.0117 50.1496C61.4264 45.3849 63.343 39.7331 63.5222 33.8999L66.8647 33.9999Z" fill="var(--fill-0, #F1EFEF)"/>
<path id="Ellipse 14" d="M33.44 0C41.0107 8.91291e-08 48.3573 2.53513 54.2783 7.19076C60.1993 11.8464 64.3443 18.347 66.0352 25.6293C67.7262 32.9116 66.863 40.5447 63.587 47.28C60.311 54.0154 54.8159 59.4544 48.0006 62.7074C41.1853 65.9605 33.4531 66.8351 26.0686 65.1883C18.6842 63.5414 12.0846 59.4704 7.34916 53.6413C2.61375 47.8122 0.0228316 40.5698 0.000166538 33.0988C-0.0224985 25.6278 2.52443 18.3702 7.22439 12.5132L9.84595 14.5619C5.61599 19.8332 3.32375 26.365 3.34415 33.0889C3.36455 39.8128 5.69638 46.3309 9.95825 51.5772C14.2201 56.8234 20.1598 60.4872 26.8058 61.9694C33.4518 63.4516 40.4108 62.6645 46.5445 59.7367C52.6783 56.8089 57.6239 51.9138 60.5723 45.852C63.5207 39.7902 64.2976 32.9205 62.7757 26.3664C61.2539 19.8123 57.5234 13.9618 52.1945 9.77169C46.8656 5.58162 40.2536 3.3 33.44 3.3L33.44 0Z" fill="var(--fill-0, #0062FF)"/>
</g>
</svg>
