<svg preserveAspectRatio="none" width="100%" height="100%" overflow="visible" style="display: block;" viewBox="0 0 66.9296 66" fill="none" xmlns="http://www.w3.org/2000/svg">
<g id="Group 1321316161">
<path id="Ellipse 10" d="M66.9296 33C66.9296 51.2254 51.9469 66 33.4648 66C14.9827 66 0 51.2254 0 33C0 14.7746 14.9827 0 33.4648 0C51.9469 0 66.9296 14.7746 66.9296 33ZM3.34648 33C3.34648 49.4029 16.8309 62.7 33.4648 62.7C50.0987 62.7 63.5831 49.4029 63.5831 33C63.5831 16.5971 50.0987 3.3 33.4648 3.3C16.8309 3.3 3.34648 16.5971 3.34648 33Z" fill="var(--fill-0, #F1EFEF)"/>
<path id="Ellipse 16" d="M33.4648 0C38.7014 6.15781e-08 43.8648 1.21183 48.54 3.53802C53.2151 5.86422 57.2714 9.23986 60.3826 13.3935C63.4939 17.547 65.5732 22.3627 66.4534 27.453C67.3336 32.5434 66.9902 37.7664 65.4506 42.702C63.9111 47.6376 61.2184 52.1481 57.5892 55.8706C53.96 59.5932 49.4956 62.4239 44.5549 64.1352C39.6143 65.8465 34.3353 66.3905 29.1426 65.7236C23.9499 65.0567 18.9884 63.1974 14.6571 60.2952L16.5379 57.5657C20.436 60.1776 24.9014 61.851 29.5748 62.4512C34.2483 63.0515 38.9993 62.5618 43.4459 61.0217C47.8925 59.4815 51.9105 56.9339 55.1768 53.5836C58.443 50.2333 60.8664 46.1739 62.252 41.7318C63.6376 37.2898 63.9468 32.589 63.1546 28.0077C62.3624 23.4264 60.491 19.0923 57.6909 15.3541C54.8907 11.6159 51.2401 8.5778 47.0324 6.48422C42.8248 4.39065 38.1777 3.3 33.4648 3.3L33.4648 0Z" fill="var(--fill-0, #0062FF)"/>
</g>
</svg>
