<svg preserveAspectRatio="none" width="100%" height="100%" overflow="visible" style="display: block;" viewBox="0 0 169.86 56.9997" fill="none" xmlns="http://www.w3.org/2000/svg">
<g id="Graph">
<path id="Path 2" opacity="0.1" fill-rule="evenodd" clip-rule="evenodd" d="M2.00047 34.0281C2.00047 34.0281 8.53852 32.3755 15.9719 36.3456C30.1097 43.8965 30.9162 30.069 36.1587 23.4017C40.955 17.3018 44.9272 21.0235 50.2675 28.4832C54.2062 33.985 59.9463 43.2204 65.8909 41.7336C71.3248 40.3746 75.177 29.5427 82.709 26.788C88.6786 24.6047 93.5299 30.6028 100.404 28.4832C109.729 25.6078 111.118 14.5935 117.783 14.5935C126.009 14.5935 131.16 34.2477 138.643 34.2477C146.082 34.2477 149.909 14.8182 158.047 20.7164C164.268 25.2256 167.86 8.68011 167.86 8.68011V56.9997H2.00047V34.0281Z" fill="url(#paint0_linear_0_1183)"/>
<path id="Path 2_2" d="M2.00047 26.9815C2.00047 26.9815 8.53852 25.3528 15.9719 29.2655C30.1097 36.707 30.9162 23.0797 36.1587 16.5089C40.955 10.4973 44.9272 14.1652 50.2675 21.5169C54.2062 26.9391 59.9463 36.0408 65.8909 34.5755C71.3248 33.2361 75.177 22.5611 82.709 19.8462C88.6786 17.6945 93.5299 23.6058 100.404 21.5169C109.729 18.6831 111.118 7.82819 117.783 7.82819C126.009 7.82819 131.16 27.1979 138.643 27.1979C146.082 27.1979 149.909 8.04967 158.047 13.8625C164.268 18.3065 167.86 2.00042 167.86 2.00042" stroke="var(--stroke-0, #FF0004)" stroke-width="4" stroke-linecap="round" stroke-linejoin="round"/>
</g>
<defs>
<linearGradient id="paint0_linear_0_1183" x1="31.9756" y1="26.1453" x2="31.9756" y2="56.9997" gradientUnits="userSpaceOnUse">
<stop stop-color="#0062FF"/>
<stop offset="1" stop-color="white" stop-opacity="0.01"/>
</linearGradient>
</defs>
</svg>
