<svg preserveAspectRatio="none" width="100%" height="100%" overflow="visible" style="display: block;" viewBox="0 0 77.5125 41.609" fill="none" xmlns="http://www.w3.org/2000/svg">
<g id="layer1">
<path id="path9419" d="M77.5125 0L55.6895 11.9179H64.4284C59.9155 21.5544 60.8521 32.8451 66.8827 41.609C64.2786 26.0616 70.6544 11.0099 77.5125 0" fill="var(--fill-0, #DA291C)"/>
<path id="path9455" d="M0 11.9179H15.0487V16.3542H5.39862V22.0476H13.9852V26.1298H5.39862V36.3784H0V11.9179Z" fill="var(--fill-0, white)"/>
<path id="path9457" d="M28.0364 27.1921L25.9881 20.9094C25.516 19.4576 25.0439 18.0412 24.7673 16.9056H24.6886C24.3739 18.0033 23.8993 19.4956 23.4272 20.9094L21.3002 27.1921H28.0364ZM21.8916 11.9179H27.9171L36.9022 36.3784H31.0314L29.4552 31.5096H19.8813L18.2265 36.3784H12.6705L21.8916 11.9179Z" fill="var(--fill-0, white)"/>
<path id="path9459" d="M47.4151 32.1773C49.8188 32.1773 51.1208 31.0771 51.1208 28.9171C51.1208 26.7192 49.9 25.581 47.4558 25.581H44.0699V32.1773H47.4151ZM47.2984 21.8908C49.7401 21.8908 50.7655 20.7906 50.7655 18.9063C50.7655 17.2192 49.702 16.119 47.339 16.119H44.0698V21.8908H47.2984ZM38.6712 11.9179H48.0065C53.3265 11.9179 56.2022 14.432 56.2022 18.1601C56.2022 21.1826 54.3519 23.029 52.3417 23.5778V23.6562C54.9813 24.2455 56.9509 26.0918 56.9509 29.2711C56.9509 33.7479 53.5625 36.3784 48.2426 36.3784H38.6712V11.9179Z" fill="var(--fill-0, white)"/>
</g>
</svg>
