<svg preserveAspectRatio="none" width="100%" height="100%" overflow="visible" style="display: block;" viewBox="0 0 16 16" fill="none" xmlns="http://www.w3.org/2000/svg">
<g id="magnifying-glass-sharp-regular 2" clip-path="url(#clip0_0_1221)">
<path id="Vector" d="M11.5 6.5C11.5 5.17392 10.9732 3.90215 10.0355 2.96447C9.09785 2.02678 7.82608 1.5 6.5 1.5C5.17392 1.5 3.90215 2.02678 2.96447 2.96447C2.02678 3.90215 1.5 5.17392 1.5 6.5C1.5 7.82608 2.02678 9.09785 2.96447 10.0355C3.90215 10.9732 5.17392 11.5 6.5 11.5C7.82608 11.5 9.09785 10.9732 10.0355 10.0355C10.9732 9.09785 11.5 7.82608 11.5 6.5ZM10.5344 11.5969C9.42813 12.475 8.025 13 6.5 13C2.90937 13 0 10.0906 0 6.5C0 2.90937 2.90937 0 6.5 0C10.0906 0 13 2.90937 13 6.5C13 8.025 12.475 9.42813 11.5969 10.5344L15.4719 14.4094L16.0031 14.9406L14.9406 16L14.4094 15.4688L10.5344 11.5938V11.5969Z" fill="var(--fill-0, white)"/>
</g>
<defs>
<clipPath id="clip0_0_1221">
<rect width="16" height="16" fill="white"/>
</clipPath>
</defs>
</svg>
