<svg preserveAspectRatio="none" width="100%" height="100%" overflow="visible" style="display: block;" viewBox="0 0 16 21.3333" fill="none" xmlns="http://www.w3.org/2000/svg">
<g id="moon-sharp-light">
<path id="Vector" d="M11.9833 1.71536C11.1625 1.4737 10.2917 1.34036 9.39167 1.33203C9.37083 1.33203 9.35 1.33203 9.32917 1.33203C4.17917 1.33203 0 5.5112 0 10.6654C0 15.8195 4.17917 19.9987 9.33333 19.9987C11 19.9987 12.5625 19.5612 13.9167 18.7987C13.9333 18.7904 13.95 18.7779 13.9667 18.7695C14.7125 18.3404 15.3958 17.8154 15.9917 17.2029C15.3458 17.3737 14.6667 17.4612 13.9667 17.4612C13.8333 17.4612 13.7 17.457 13.5667 17.4529C9.34583 17.2445 5.9875 13.7445 5.9875 9.4612C5.9875 6.5987 7.4875 4.0862 9.74583 2.66953C10.4292 2.24036 11.1833 1.91536 11.9875 1.70703L11.9833 1.71536ZM7.32917 2.91953C5.675 4.60286 4.65417 6.91536 4.65417 9.46536C4.65417 13.6987 7.46667 17.2737 11.3208 18.4154C10.6875 18.5779 10.0208 18.6654 9.33333 18.6654C4.91667 18.6654 1.33333 15.082 1.33333 10.6654C1.33333 6.94036 3.87917 3.80703 7.32917 2.91953Z" fill="var(--fill-0, #1C2F3D)"/>
</g>
</svg>
