<svg preserveAspectRatio="none" width="100%" height="100%" overflow="visible" style="display: block;" viewBox="0 0 31.9989 24.9639" fill="none" xmlns="http://www.w3.org/2000/svg">
<path id="Vector" fill-rule="evenodd" clip-rule="evenodd" d="M23.0764 2.61282C24.4915 3.87366 25.4503 5.48375 25.8288 7.23521C27.6721 7.53169 29.3242 8.43218 30.4605 9.75963C31.5968 11.0871 32.1351 12.7455 31.9695 14.4088C31.8039 16.0722 30.9464 17.6201 29.5656 18.7484C28.1848 19.8766 26.3806 20.5036 24.5076 20.506H24V18.7229H24.5076C25.8811 18.7204 27.2038 18.2601 28.2159 17.4324C29.228 16.6047 29.8563 15.4694 29.9773 14.2496C30.0983 13.0299 29.7032 11.8139 28.8697 10.8407C28.0362 9.86744 26.8246 9.20733 25.4729 8.99008L24.124 8.77245L23.865 7.57267C23.5122 5.9435 22.5341 4.47469 21.0988 3.41848C19.6635 2.36227 17.8605 1.78456 15.9994 1.78456C14.1384 1.78456 12.3354 2.36227 10.9001 3.41848C9.46475 4.47469 8.48669 5.9435 8.13384 7.57267L7.87474 8.77245L6.52594 8.99008C5.17396 9.2074 3.96209 9.86779 3.12859 10.8414C2.2951 11.815 1.90029 13.0314 2.02181 14.2514C2.14332 15.4715 2.77236 16.6068 3.78525 17.4342C4.79813 18.2617 6.12157 18.7213 7.49534 18.7229H8.00004V20.506H7.49124C5.61827 20.5036 3.81405 19.8766 2.43326 18.7484C1.05247 17.6201 0.194992 16.0722 0.0293946 14.4088C-0.136202 12.7455 0.402059 11.0871 1.53837 9.75963C2.67467 8.43218 4.32683 7.53169 6.17004 7.23521C6.41805 6.08439 6.91803 4.98844 7.64139 4.01C8.36475 3.03157 9.29732 2.18983 10.3858 1.53292C11.4742 0.876007 12.6972 0.416799 13.9849 0.181546C15.2725 -0.053706 16.5995 -0.0603894 17.89 0.161878C19.8548 0.498254 21.6613 1.35197 23.0764 2.61282ZM20.0001 13.3735V16.0482C20.5303 16.0488 21.0386 16.2368 21.4135 16.5711C21.7885 16.9054 21.9994 17.3586 22.0001 17.8313V23.1807C21.9994 23.6535 21.7885 24.1067 21.4135 24.4409C21.0386 24.7752 20.5303 24.9633 20.0001 24.9639H12.0001C11.4698 24.9633 10.9615 24.7752 10.5866 24.4409C10.2116 24.1067 10.0007 23.6535 10.0001 23.1807V17.8313C10.0007 17.3586 10.2116 16.9054 10.5866 16.5711C10.9615 16.2368 11.4698 16.0488 12.0001 16.0482V13.3735C12.0001 12.4277 12.4215 11.5206 13.1716 10.8518C13.9218 10.183 14.9392 9.80723 16.0001 9.80723C17.0609 9.80723 18.0783 10.183 18.8285 10.8518C19.5786 11.5206 20.0001 12.4277 20.0001 13.3735ZM14.5858 12.1126C14.2108 12.447 14.0001 12.9006 14.0001 13.3735V16.0482H18.0001V13.3735C18.0001 12.9006 17.7893 12.447 17.4143 12.1126C17.0392 11.7782 16.5305 11.5904 16.0001 11.5904C15.4696 11.5904 14.9609 11.7782 14.5858 12.1126ZM12.0001 17.8313V23.1807H20.0013L20.0001 17.8313H12.0001Z" fill="var(--fill-0, white)"/>
</svg>
