<svg preserveAspectRatio="none" width="100%" height="100%" overflow="visible" style="display: block;" viewBox="0 0 24 21.3976" fill="none" xmlns="http://www.w3.org/2000/svg">
<path id="Vector" fill-rule="evenodd" clip-rule="evenodd" d="M2 12.4819H12C12.5304 12.4819 13.0391 12.2941 13.4142 11.9597C13.7893 11.6253 14 11.1717 14 10.6988V1.78313C14 1.31022 13.7893 0.85667 13.4142 0.522267C13.0391 0.187865 12.5304 0 12 0H2C1.46957 0 0.960859 0.187865 0.585786 0.522267C0.210714 0.85667 0 1.31022 0 1.78313V10.6988C0 11.1717 0.210714 11.6253 0.585786 11.9597C0.960859 12.2941 1.46957 12.4819 2 12.4819ZM2 10.6988V1.78313H12V10.6988H2ZM22 10.6988V7.13253H18V10.6988H22ZM18 5.3494H22C22.5304 5.3494 23.0391 5.53726 23.4142 5.87167C23.7893 6.20607 24 6.65961 24 7.13253V10.6988C24 11.1717 23.7893 11.6253 23.4142 11.9597C23.0391 12.2941 22.5304 12.4819 22 12.4819H18C17.4696 12.4819 16.9609 12.2941 16.5858 11.9597C16.2107 11.6253 16 11.1717 16 10.6988V7.13253C16 6.65961 16.2107 6.20607 16.5858 5.87167C16.9609 5.53726 17.4696 5.3494 18 5.3494ZM22 16.0482V19.6145H18V16.0482H22ZM22 14.2651H18C17.4696 14.2651 16.9609 14.4529 16.5858 14.7873C16.2107 15.1217 16 15.5753 16 16.0482V19.6145C16 20.0874 16.2107 20.5409 16.5858 20.8753C16.9609 21.2097 17.4696 21.3976 18 21.3976H22C22.5304 21.3976 23.0391 21.2097 23.4142 20.8753C23.7893 20.5409 24 20.0874 24 19.6145V16.0482C24 15.5753 23.7893 15.1217 23.4142 14.7873C23.0391 14.4529 22.5304 14.2651 22 14.2651ZM12 19.6145V16.0482H8V19.6145H12ZM8 14.2651H12C12.5304 14.2651 13.0391 14.4529 13.4142 14.7873C13.7893 15.1217 14 15.5753 14 16.0482V19.6145C14 20.0874 13.7893 20.5409 13.4142 20.8753C13.0391 21.2097 12.5304 21.3976 12 21.3976H8C7.46957 21.3976 6.96086 21.2097 6.58579 20.8753C6.21071 20.5409 6 20.0874 6 19.6145V16.0482C6 15.5753 6.21071 15.1217 6.58579 14.7873C6.96086 14.4529 7.46957 14.2651 8 14.2651Z" fill="var(--fill-0, white)"/>
</svg>
