<svg preserveAspectRatio="none" width="100%" height="100%" overflow="visible" style="display: block;" viewBox="0 0 28 21.3976" fill="none" xmlns="http://www.w3.org/2000/svg">
<path id="Vector" fill-rule="evenodd" clip-rule="evenodd" d="M2 14.2651H26C26.5302 14.2644 27.0385 14.0764 27.4134 13.7421C27.7883 13.4078 27.9993 12.9546 28 12.4819V1.78313C27.9987 1.31059 27.7875 0.857736 27.4127 0.523593C27.0379 0.189451 26.53 0.00120041 26 0H2C1.46998 0.00120041 0.962055 0.189451 0.587274 0.523593C0.212493 0.857736 0.00134641 1.31059 0 1.78313V12.4819C0.00134641 12.9545 0.212493 13.4073 0.587274 13.7415C0.962055 14.0756 1.46998 14.2639 2 14.2651ZM2 1.78313H26V12.4819H2V1.78313ZM11.7777 10.0978C12.4355 10.4896 13.2089 10.6988 14 10.6988C15.0605 10.6977 16.0772 10.3217 16.8271 9.65309C17.577 8.98452 17.9988 8.07804 18 7.13253C18 6.42719 17.7654 5.73769 17.3259 5.15122C16.8864 4.56475 16.2616 4.10766 15.5307 3.83773C14.7998 3.56781 13.9956 3.49719 13.2196 3.63479C12.4437 3.7724 11.731 4.11205 11.1716 4.6108C10.6122 5.10955 10.2312 5.745 10.0769 6.43679C9.92252 7.12858 10.0017 7.84563 10.3045 8.49728C10.6072 9.14893 11.1199 9.70591 11.7777 10.0978ZM12.8889 5.64991C13.2178 5.45398 13.6044 5.3494 14 5.3494C14.5303 5.34987 15.0387 5.53789 15.4136 5.87219C15.7886 6.20649 15.9995 6.65976 16 7.13253C16 7.4852 15.8827 7.82995 15.6629 8.12319C15.4432 8.41642 15.1308 8.64497 14.7654 8.77993C14.3999 8.91489 13.9978 8.95021 13.6098 8.8814C13.2219 8.8126 12.8655 8.64277 12.5858 8.3934C12.3061 8.14402 12.1156 7.8263 12.0384 7.4804C11.9613 7.13451 12.0009 6.77598 12.1522 6.45016C12.3036 6.12433 12.56 5.84585 12.8889 5.64991ZM22 5.3494C21.6044 5.3494 21.2178 5.45398 20.8889 5.64991C20.56 5.84584 20.3036 6.12433 20.1522 6.45016C20.0009 6.77598 19.9613 7.13451 20.0384 7.4804C20.1156 7.8263 20.3061 8.14402 20.5858 8.3934C20.8655 8.64277 21.2219 8.8126 21.6098 8.8814C21.9978 8.9502 22.3999 8.91489 22.7654 8.77993C23.1308 8.64497 23.4432 8.41642 23.6629 8.12319C23.8827 7.82995 24 7.4852 24 7.13253C24 6.65961 23.7893 6.20607 23.4142 5.87167C23.0391 5.53726 22.5304 5.3494 22 5.3494ZM0 16.0482H28V17.8313H0V16.0482ZM0 19.6145H28V21.3976H0V19.6145ZM6 5.3494C5.60444 5.3494 5.21776 5.45398 4.88886 5.64991C4.55996 5.84584 4.30362 6.12433 4.15224 6.45016C4.00087 6.77598 3.96126 7.13451 4.03843 7.4804C4.1156 7.8263 4.30608 8.14402 4.58579 8.3934C4.86549 8.64277 5.22186 8.8126 5.60982 8.8814C5.99778 8.9502 6.39992 8.91489 6.76537 8.77993C7.13082 8.64497 7.44318 8.41642 7.66294 8.12319C7.8827 7.82995 8 7.4852 8 7.13253C8 6.65961 7.78929 6.20607 7.41421 5.87167C7.03914 5.53726 6.53043 5.3494 6 5.3494Z" fill="var(--fill-0, white)"/>
</svg>
