<svg preserveAspectRatio="none" width="100%" height="100%" overflow="visible" style="display: block;" viewBox="0 0 32 24.9639" fill="none" xmlns="http://www.w3.org/2000/svg">
<path id="Vector" fill-rule="evenodd" clip-rule="evenodd" d="M2 0H10V1.78313H2V0ZM27 11.7436V3.56627C26.9994 3.09352 26.7884 2.64031 26.4135 2.30603C26.0386 1.97175 25.5302 1.7837 25 1.78313H13V3.56627H25V11.7436L21.4141 8.54647L20 9.80723L26 15.1566L32 9.80723L30.5859 8.54647L27 11.7436ZM5 20.506V12.3287L1.4141 15.5258L0 14.2651L6 8.91566L12 14.2651L10.5859 15.5258L7 12.3287V20.506H19V22.2892H7C6.46976 22.2886 5.96142 22.1005 5.58649 21.7663C5.21155 21.432 5.00064 20.9788 5 20.506ZM22.5864 18.3541C22.9613 18.0198 23.4697 17.8318 24 17.8313H28C28.5303 17.8318 29.0387 18.0198 29.4136 18.3541C29.7886 18.6884 29.9995 19.1417 30 19.6145V23.1807C29.9995 23.6535 29.7886 24.1068 29.4136 24.4411C29.0387 24.7754 28.5303 24.9634 28 24.9639H24C23.4697 24.9634 22.9613 24.7754 22.5864 24.4411C22.2114 24.1068 22.0005 23.6535 22 23.1807V19.6145C22.0005 19.1417 22.2114 18.6884 22.5864 18.3541ZM28 23.1807V19.6145H23.9985L24 23.1807H28ZM8 3.56627H2V5.3494H8V3.56627Z" fill="var(--fill-0, white)"/>
</svg>
