<svg preserveAspectRatio="none" width="100%" height="100%" overflow="visible" style="display: block;" viewBox="0 0 28 24.9639" fill="none" xmlns="http://www.w3.org/2000/svg">
<path id="Vector" fill-rule="evenodd" clip-rule="evenodd" d="M20 7.13255V10.6988H18V8.91568H12C11.4696 8.91568 10.9609 8.72781 10.5858 8.39341C10.2107 8.05901 10 7.60546 10 7.13255V1.78315H2V23.1807H18V21.3976H20V23.1807C20 23.6537 19.7893 24.1072 19.4142 24.4416C19.0391 24.776 18.5304 24.9639 18 24.9639H2C1.46957 24.9639 0.960859 24.776 0.585786 24.4416C0.210714 24.1072 0 23.6537 0 23.1807V1.78315C0 1.31023 0.210714 0.856685 0.585786 0.522282C0.960859 0.18788 1.46957 1.49019e-05 2 1.49019e-05H12C12.1316 -0.000663485 12.2621 0.0218263 12.3839 0.0661948C12.5057 0.110563 12.6166 0.175938 12.71 0.258569L19.71 6.49953C19.8027 6.58284 19.876 6.68164 19.9258 6.79027C19.9755 6.89889 20.0008 7.01521 20 7.13255ZM12 2.14869V7.13255H17.59L12 2.14869ZM24.17 16.9398H11V15.1566H24.17L21.59 12.8475L23 11.5904L28 16.0482L23 20.506L21.59 19.2489L24.17 16.9398Z" fill="var(--fill-0, white)"/>
</svg>
